<?xml version="1.0" encoding="UTF-8" standalone="no"?>
<!-- Created with Inkscape (http://www.inkscape.org/) -->

<svg
   width="291.49902mm"
   height="98.373352mm"
   viewBox="0 0 291.49902 98.373351"
   version="1.1"
   id="svg1"
   inkscape:version="1.4 (e7c3feb100, 2024-10-09)"
   sodipodi:docname="scoreratio-guide.svg"
   xml:space="preserve"
   xmlns:inkscape="http://www.inkscape.org/namespaces/inkscape"
   xmlns:sodipodi="http://sodipodi.sourceforge.net/DTD/sodipodi-0.dtd"
   xmlns:xlink="http://www.w3.org/1999/xlink"
   xmlns="http://www.w3.org/2000/svg"
   xmlns:svg="http://www.w3.org/2000/svg"><sodipodi:namedview
     id="namedview1"
     pagecolor="#ffffff"
     bordercolor="#000000"
     borderopacity="0.25"
     inkscape:showpageshadow="2"
     inkscape:pageopacity="0.0"
     inkscape:pagecheckerboard="0"
     inkscape:deskcolor="#d1d1d1"
     inkscape:document-units="mm"
     inkscape:zoom="1.4253648"
     inkscape:cx="596.68936"
     inkscape:cy="237.83386"
     inkscape:window-width="1920"
     inkscape:window-height="1011"
     inkscape:window-x="0"
     inkscape:window-y="0"
     inkscape:window-maximized="1"
     inkscape:current-layer="layer1" /><defs
     id="defs1"><linearGradient
       id="linearGradient10"
       inkscape:collect="always"><stop
         style="stop-color:#eb007d;stop-opacity:1;"
         offset="0.80026042"
         id="stop10" /><stop
         style="stop-color:#eb007d;stop-opacity:0;"
         offset="1"
         id="stop11" /></linearGradient><marker
       style="overflow:visible"
       id="Triangle"
       refX="0"
       refY="0"
       orient="auto-start-reverse"
       inkscape:stockid="Triangle arrow"
       markerWidth="1"
       markerHeight="1"
       viewBox="0 0 1 1"
       inkscape:isstock="true"
       inkscape:collect="always"
       preserveAspectRatio="xMidYMid"><path
         transform="scale(0.5)"
         style="fill:context-stroke;fill-rule:evenodd;stroke:context-stroke;stroke-width:1pt"
         d="M 5.77,0 -2.88,5 V -5 Z"
         id="path135" /></marker><marker
       style="overflow:visible"
       id="ConcaveTriangle"
       refX="0"
       refY="0"
       orient="auto-start-reverse"
       inkscape:stockid="Concave triangle arrow"
       markerWidth="1"
       markerHeight="1"
       viewBox="0 0 1 1"
       inkscape:isstock="true"
       inkscape:collect="always"
       preserveAspectRatio="xMidYMid"><path
         transform="scale(0.7)"
         d="M -2,-4 9,0 -2,4 c 2,-2.33 2,-5.66 0,-8 z"
         style="fill:context-stroke;fill-rule:evenodd;stroke:none"
         id="path7" /></marker><linearGradient
       inkscape:collect="always"
       xlink:href="#linearGradient10"
       id="linearGradient11"
       x1="287.45218"
       y1="93.853517"
       x2="314.22325"
       y2="93.853517"
       gradientUnits="userSpaceOnUse"
       gradientTransform="translate(9.0157919e-6)" /></defs><g
     inkscape:label="Layer 1"
     inkscape:groupmode="layer"
     id="layer1"
     transform="translate(-27.248625,-18.707613)"><rect
       style="font-variation-settings:normal;opacity:1;vector-effect:none;fill:#ffffff;fill-opacity:1;stroke:none;stroke-width:0.264999;stroke-linecap:butt;stroke-linejoin:miter;stroke-miterlimit:4;stroke-dasharray:none;stroke-dashoffset:0;stroke-opacity:1;-inkscape-stroke:none"
       id="rect51"
       width="291.49902"
       height="98.373352"
       x="27.248625"
       y="18.707613"
       rx="0.88625002"
       ry="2" /><path
       style="fill:#000000;fill-opacity:1;stroke:#000000;stroke-width:0.265;stroke-dasharray:none;stroke-opacity:1;marker-end:url(#ConcaveTriangle)"
       d="M 36.402425,83.57316 H 310.8096"
       id="path1" /><text
       xml:space="preserve"
       style="font-size:3.76898px;font-family:Sans;-inkscape-font-specification:'Sans, Normal';text-align:start;writing-mode:lr-tb;direction:ltr;text-anchor:start;fill:#000000;fill-opacity:1;stroke:none;stroke-width:0.264999;stroke-dasharray:none;stroke-opacity:1"
       x="271.97482"
       y="83.704117"
       id="text1"
       transform="scale(1.036809,0.9644978)"><tspan
         sodipodi:role="line"
         id="tspan1"
         style="stroke:none;stroke-width:0.265"
         x="271.97482"
         y="83.704117">score ratio</tspan></text><text
       xml:space="preserve"
       style="font-size:3.76898px;font-family:Sans;-inkscape-font-specification:'Sans, Normal';text-align:start;writing-mode:lr-tb;direction:ltr;text-anchor:start;fill:#000000;fill-opacity:1;stroke:none;stroke-width:0.264999;stroke-dasharray:none;stroke-opacity:1"
       x="59.371563"
       y="81.648163"
       id="text1-5"
       transform="scale(1.036809,0.9644978)"><tspan
         sodipodi:role="line"
         id="tspan1-3"
         style="stroke:none;stroke-width:0.265"
         x="59.371563"
         y="81.648163">1</tspan></text><ellipse
       style="font-variation-settings:normal;opacity:1;vector-effect:none;fill:#ffe569;fill-opacity:1;stroke:none;stroke-width:0.264997;stroke-linecap:butt;stroke-linejoin:miter;stroke-miterlimit:4;stroke-dasharray:none;stroke-dashoffset:0;stroke-opacity:1;-inkscape-stroke:none;stop-color:#000000;stop-opacity:1"
       id="path2"
       cx="70.262611"
       cy="94.864349"
       rx="9.7556553"
       ry="2.3885796" /><ellipse
       style="font-variation-settings:normal;opacity:1;vector-effect:none;fill:#f79731;fill-opacity:1;stroke:none;stroke-width:0.264999;stroke-linecap:butt;stroke-linejoin:miter;stroke-miterlimit:4;stroke-dasharray:none;stroke-dashoffset:0;stroke-opacity:1;-inkscape-stroke:none;stop-color:#000000;stop-opacity:1"
       id="path2-9"
       cx="97.072159"
       cy="70.492897"
       rx="23.958927"
       ry="4.5202746" /><ellipse
       style="font-variation-settings:normal;opacity:1;vector-effect:none;fill:#e53d06;fill-opacity:1;stroke:none;stroke-width:0.265;stroke-linecap:butt;stroke-linejoin:miter;stroke-miterlimit:4;stroke-dasharray:none;stroke-dashoffset:0;stroke-opacity:1;-inkscape-stroke:none;stop-color:#000000;stop-opacity:1"
       id="path2-9-6"
       cx="134.64824"
       cy="94.591835"
       rx="27.49939"
       ry="4.5202746" /><ellipse
       style="font-variation-settings:normal;opacity:1;vector-effect:none;fill:#b70404;fill-opacity:1;stroke:none;stroke-width:0.264997;stroke-linecap:butt;stroke-linejoin:miter;stroke-miterlimit:4;stroke-dasharray:none;stroke-dashoffset:0;stroke-opacity:1;-inkscape-stroke:none;stop-color:#000000;stop-opacity:1"
       id="path2-9-6-4"
       cx="190.50343"
       cy="65.72731"
       rx="39.942902"
       ry="4.5202746" /><ellipse
       style="font-variation-settings:normal;opacity:1;vector-effect:none;fill:#eb007d;fill-opacity:1;stroke:none;stroke-width:0.264999;stroke-linecap:butt;stroke-linejoin:miter;stroke-miterlimit:4;stroke-dasharray:none;stroke-dashoffset:0;stroke-opacity:1;-inkscape-stroke:none;stop-color:#000000;stop-opacity:1"
       id="path2-9-6-4-3"
       cx="256.9408"
       cy="93.833359"
       rx="49.576973"
       ry="4.487" /><path
       style="fill:#000000;fill-opacity:1;stroke:#000000;stroke-width:0.365;stroke-dasharray:none;stroke-opacity:1"
       d="m 62.409094,81.157235 v 4.405501"
       id="path3" /><path
       style="fill:#000000;fill-opacity:1;stroke:#000000;stroke-width:0.365;stroke-dasharray:none;stroke-opacity:1"
       d="m 193.66984,81.157235 v 4.405501"
       id="path4" /><text
       xml:space="preserve"
       style="font-size:3.76898px;font-family:Sans;-inkscape-font-specification:'Sans, Normal';text-align:start;writing-mode:lr-tb;direction:ltr;text-anchor:start;fill:#000000;fill-opacity:1;stroke:none;stroke-width:0.264999;stroke-dasharray:none;stroke-opacity:1"
       x="185.97215"
       y="81.648163"
       id="text5"
       transform="scale(1.036809,0.9644978)"><tspan
         sodipodi:role="line"
         id="tspan5"
         style="stroke:none;stroke-width:0.265"
         x="185.97215"
         y="81.648163">2</tspan></text><path
       style="fill:#000000;fill-opacity:1;stroke:#000000;stroke-width:0.365;stroke-dasharray:none;stroke-opacity:1"
       d="m 128.84971,83.568972 v 1.993764"
       id="path6" /><text
       xml:space="preserve"
       style="font-size:3.76898px;font-family:Sans;-inkscape-font-specification:'Sans, Normal';text-align:start;writing-mode:lr-tb;direction:ltr;text-anchor:start;fill:#000000;fill-opacity:1;stroke:none;stroke-width:0.264999;stroke-dasharray:none;stroke-opacity:1"
       x="120.73344"
       y="84.56543"
       id="text6"
       transform="scale(1.036809,0.9644978)"><tspan
         sodipodi:role="line"
         id="tspan6"
         style="stroke:none;stroke-width:0.265"
         x="120.73344"
         y="84.56543">1.50</tspan></text><path
       style="fill:#000000;fill-opacity:1;stroke:#000000;stroke-width:0.365;stroke-dasharray:none;stroke-opacity:1"
       d="m 95.629406,83.568972 v 1.993764"
       id="path8" /><path
       style="fill:#000000;fill-opacity:1;stroke:#000000;stroke-width:0.365;stroke-dasharray:none;stroke-opacity:1"
       d="m 162.07003,83.568972 v 1.993764"
       id="path9" /><path
       style="fill:#000000;fill-opacity:1;stroke:#000000;stroke-width:0.365;stroke-dasharray:none;stroke-opacity:1"
       d="m 260.1105,83.568972 v 1.993764"
       id="path11" /><text
       xml:space="preserve"
       style="font-size:3.76898px;font-family:Sans;-inkscape-font-specification:'Sans, Normal';text-align:start;writing-mode:lr-tb;direction:ltr;text-anchor:start;fill:#000000;fill-opacity:1;stroke:none;stroke-width:0.264999;stroke-dasharray:none;stroke-opacity:1"
       x="248.1156"
       y="84.56543"
       id="text11"
       transform="scale(1.036809,0.9644978)"><tspan
         sodipodi:role="line"
         id="tspan11"
         style="stroke:none;stroke-width:0.265"
         x="248.1156"
         y="84.56543">2.5</tspan></text><path
       style="fill:#000000;fill-opacity:1;stroke:#000000;stroke-width:0.365;stroke-dasharray:none;stroke-opacity:1"
       d="m 226.89017,83.568972 v 1.993764"
       id="path12" /><text
       xml:space="preserve"
       style="font-size:2.5386px;font-family:Sans;-inkscape-font-specification:'Sans, Normal';text-align:start;writing-mode:lr-tb;direction:ltr;text-anchor:start;fill:#000000;fill-opacity:1;stroke:#000000;stroke-width:0.365;stroke-dasharray:none;stroke-opacity:1"
       x="58.923164"
       y="100.85207"
       id="text13"><tspan
         sodipodi:role="line"
         style="stroke:none;stroke-width:0.365"
         x="58.923164"
         y="100.85207"
         id="tspan20">almost unnoticable</tspan><tspan
         sodipodi:role="line"
         style="stroke:none;stroke-width:0.365"
         x="58.923164"
         y="104.02532"
         id="tspan19">⪅10% difference. </tspan><tspan
         sodipodi:role="line"
         style="stroke:none;stroke-width:0.365"
         x="58.923164"
         y="107.26231"
         id="tspan41"><tspan
   style="font-weight:bold;stroke-width:0.365"
   id="tspan43">Slightly worse</tspan> than</tspan><tspan
         sodipodi:role="line"
         style="stroke:none;stroke-width:0.365"
         x="58.923164"
         y="110.43557"
         id="tspan42">the ref ngram.</tspan></text><text
       xml:space="preserve"
       style="font-size:2.5386px;font-family:Sans;-inkscape-font-specification:'Sans, Normal';text-align:start;writing-mode:lr-tb;direction:ltr;text-anchor:start;fill:#000000;fill-opacity:1;stroke:#000000;stroke-width:0.365;stroke-dasharray:none;stroke-opacity:1"
       x="77.956078"
       y="57.503357"
       id="text13-0"><tspan
         sodipodi:role="line"
         style="stroke:none;stroke-width:0.365"
         x="77.956078"
         y="57.503357"
         id="tspan23"><tspan
   style="font-weight:bold"
   id="tspan8">Some difference</tspan>. These</tspan><tspan
         sodipodi:role="line"
         style="stroke:none;stroke-width:0.365"
         x="77.956078"
         y="60.676605"
         id="tspan46"><tspan
   style="font-weight:bold;stroke-width:0.365"
   id="tspan7"><tspan
   style="font-weight:normal"
   id="tspan24">should exist </tspan>slightly less </tspan>than the</tspan><tspan
         sodipodi:role="line"
         style="stroke:none;stroke-width:0.365"
         x="77.956078"
         y="63.849857"
         id="tspan9">reference.</tspan></text><text
       xml:space="preserve"
       style="font-size:2.5386px;font-family:Sans;-inkscape-font-specification:'Sans, Normal';text-align:start;writing-mode:lr-tb;direction:ltr;text-anchor:start;fill:#000000;fill-opacity:1;stroke:#000000;stroke-width:0.365;stroke-dasharray:none;stroke-opacity:1"
       x="34.727871"
       y="43.983189"
       id="text13-0-7"><tspan
         sodipodi:role="line"
         style="stroke:none;stroke-width:0.365"
         x="34.727871"
         y="43.983189"
         id="tspan26-0"><tspan
   style="font-weight:bold;stroke-width:0.365"
   id="tspan51">Difficult to say </tspan>which is</tspan><tspan
         sodipodi:role="line"
         style="stroke:none;stroke-width:0.365"
         x="34.727871"
         y="47.156437"
         id="tspan37">easier and it depends..</tspan><tspan
         sodipodi:role="line"
         style="stroke:none;stroke-width:0.365"
         x="34.727871"
         y="50.329689"
         id="tspan39">Marking 1.0 since there's</tspan><tspan
         sodipodi:role="line"
         style="stroke:none;stroke-width:0.365"
         x="34.727871"
         y="53.502937"
         id="tspan40">no better information.</tspan></text><text
       xml:space="preserve"
       style="font-size:2.5386px;font-family:Sans;-inkscape-font-specification:'Sans, Normal';text-align:start;writing-mode:lr-tb;direction:ltr;text-anchor:start;fill:#000000;fill-opacity:1;stroke:#000000;stroke-width:0.365;stroke-dasharray:none;stroke-opacity:1"
       x="112.41579"
       y="102.64535"
       id="text13-0-9"><tspan
         sodipodi:role="line"
         style="stroke:none;stroke-width:0.365"
         x="112.41579"
         y="102.64535"
         id="tspan25"><tspan
   style="font-weight:bold"
   id="tspan2">Feeling a difference</tspan>. Should <tspan
   style="font-weight:bold"
   id="tspan3">appear</tspan><tspan
   style="font-weight:bold;stroke-width:0.365"
   id="tspan49"></tspan></tspan><tspan
         sodipodi:role="line"
         style="stroke:none;stroke-width:0.365"
         x="112.41579"
         y="105.8186"
         id="tspan26"><tspan
   style="font-weight:bold;stroke-width:0.365"
   id="tspan27">less</tspan> in the layout than the reference.</tspan></text><text
       xml:space="preserve"
       style="font-size:2.5386px;font-family:Sans;-inkscape-font-specification:'Sans, Normal';text-align:start;writing-mode:lr-tb;direction:ltr;text-anchor:start;fill:#000000;fill-opacity:1;stroke:#000000;stroke-width:0.365;stroke-dasharray:none;stroke-opacity:1"
       x="160.32591"
       y="51.973503"
       id="text13-0-9-5"><tspan
         sodipodi:role="line"
         style="stroke:none;stroke-width:0.365"
         x="160.32591"
         y="51.973503"
         id="tspan25-6">These are <tspan
   style="font-weight:bold;stroke-width:0.365"
   id="tspan33">much worse </tspan>and it's </tspan><tspan
         sodipodi:role="line"
         style="stroke:none;stroke-width:0.365"
         x="160.32591"
         y="55.146751"
         id="tspan31">undebatable. These should exist</tspan><tspan
         sodipodi:role="line"
         style="stroke:none;stroke-width:0.365"
         x="160.32591"
         y="58.320004"
         id="tspan32"><tspan
   style="font-weight:bold;stroke-width:0.365"
   id="tspan50">much less</tspan> than the reference.</tspan></text><text
       xml:space="preserve"
       style="font-size:2.5386px;font-family:Sans;-inkscape-font-specification:'Sans, Normal';text-align:start;writing-mode:lr-tb;direction:ltr;text-anchor:start;fill:#000000;fill-opacity:1;stroke:#000000;stroke-width:0.365;stroke-dasharray:none;stroke-opacity:1"
       x="287.3208"
       y="101.61235"
       id="text13-0-9-5-5"><tspan
         sodipodi:role="line"
         style="stroke:none;stroke-width:0.365"
         x="287.3208"
         y="101.61235"
         id="tspan32-2"><tspan
   style="font-weight:bold"
   id="tspan14">Worst cases</tspan>: 3.0-4.0</tspan><tspan
         sodipodi:role="line"
         style="stroke:none;stroke-width:0.365"
         x="287.3208"
         y="104.7856"
         id="tspan12"><tspan
   style="font-weight:bold"
   id="tspan18">Softmax</tspan> around 4.0</tspan></text><text
       xml:space="preserve"
       style="font-size:2.5386px;font-family:Sans;-inkscape-font-specification:'Sans, Normal';text-align:start;writing-mode:lr-tb;direction:ltr;text-anchor:start;fill:#000000;fill-opacity:1;stroke:#000000;stroke-width:0.365;stroke-dasharray:none;stroke-opacity:1"
       x="228.00807"
       y="102.89276"
       id="text13-0-9-5-7"><tspan
         sodipodi:role="line"
         style="stroke:none;stroke-width:0.365"
         x="228.00807"
         y="102.89276"
         id="tspan32-9">The difference is <tspan
   style="font-weight:bold"
   id="tspan21">extremely well noticeable..</tspan></tspan><tspan
         sodipodi:role="line"
         style="stroke:none;stroke-width:0.365"
         x="228.00807"
         y="106.06601"
         id="tspan22">Largest score ratios in the file.</tspan></text><text
       xml:space="preserve"
       style="font-size:3.76898px;font-family:Sans;-inkscape-font-specification:'Sans, Normal';text-align:start;writing-mode:lr-tb;direction:ltr;text-anchor:start;fill:#000000;fill-opacity:1;stroke:none;stroke-width:0.264999;stroke-dasharray:none;stroke-opacity:1"
       x="88.692543"
       y="84.56543"
       id="text15"
       transform="scale(1.036809,0.9644978)"><tspan
         sodipodi:role="line"
         id="tspan15"
         style="stroke:none;stroke-width:0.265"
         x="88.692543"
         y="84.56543">1.25</tspan></text><text
       xml:space="preserve"
       style="font-size:3.76898px;font-family:Sans;-inkscape-font-specification:'Sans, Normal';text-align:start;writing-mode:lr-tb;direction:ltr;text-anchor:start;fill:#000000;fill-opacity:1;stroke:none;stroke-width:0.264999;stroke-dasharray:none;stroke-opacity:1"
       x="153.55582"
       y="84.56543"
       id="text16"
       transform="scale(1.036809,0.9644978)"><tspan
         sodipodi:role="line"
         id="tspan16"
         style="stroke:none;stroke-width:0.265"
         x="153.55582"
         y="84.56543">1.75</tspan></text><text
       xml:space="preserve"
       style="font-size:3.76898px;font-family:Sans;-inkscape-font-specification:'Sans, Normal';text-align:start;writing-mode:lr-tb;direction:ltr;text-anchor:start;fill:#000000;fill-opacity:1;stroke:none;stroke-width:0.264999;stroke-dasharray:none;stroke-opacity:1"
       x="215.29317"
       y="84.56543"
       id="text17"
       transform="scale(1.036809,0.9644978)"><tspan
         sodipodi:role="line"
         id="tspan17"
         style="stroke:none;stroke-width:0.265"
         x="215.29317"
         y="84.56543">2.25</tspan></text><path
       id="rect33"
       style="font-variation-settings:normal;opacity:1;vector-effect:none;fill:#eb007d;fill-opacity:1;stroke:none;stroke-width:0.264999;stroke-linecap:butt;stroke-linejoin:miter;stroke-miterlimit:4;stroke-dasharray:none;stroke-dashoffset:0;stroke-opacity:1;-inkscape-stroke:none;stop-color:#000000;stop-opacity:1"
       d="m 259.23517,89.366552 h 45.52322 c 1.13009,0 2.03987,1.347599 2.03987,3.021523 v 2.930881 c 0,1.673923 -0.90978,3.021526 -2.03987,3.021526 h -45.52322 c -1.13007,0 -2.03985,-1.347603 -2.03985,-3.021526 v -2.930881 c 0,-1.673924 0.90978,-3.021523 2.03985,-3.021523 z" /><path
       style="fill:#000000;fill-opacity:1;stroke:#868686;stroke-width:0.265;stroke-dasharray:none;stroke-opacity:1;marker-end:url(#Triangle)"
       d="m 54.662443,56.285105 6.732762,17.887047"
       id="path40" /><path
       style="font-size:6.35px;font-family:Vazirmatn;-inkscape-font-specification:'Vazirmatn, @wght=600';font-variation-settings:'wght' 600;stroke-width:0.264999"
       d="m 122.20787,24.667573 v 4.040179 h -1.25336 v -5.136866 h 1.1774 z m -0.1994,1.286591 h -0.37031 q 0.005,-0.750116 0.25637,-1.305581 0.25637,-0.555465 0.71214,-0.864057 0.45576,-0.308592 1.06345,-0.308592 0.49375,0 0.85931,0.189904 0.36556,0.185154 0.56971,0.612435 0.20414,0.422533 0.20414,1.134668 v 3.294811 h -1.26285 v -3.304306 q 0,-0.351319 -0.10444,-0.555466 -0.0997,-0.204145 -0.29435,-0.2896 -0.1899,-0.08545 -0.47001,-0.08545 -0.2896,0 -0.50799,0.118682 -0.21364,0.113935 -0.36081,0.318086 -0.14243,0.204145 -0.21839,0.470009 -0.076,0.265864 -0.076,0.574456 z m 7.66732,-2.383278 h 1.13942 v 4.980196 q 0,0.697893 -0.30385,1.182144 -0.29909,0.489 -0.84032,0.740621 -0.54122,0.256368 -1.2581,0.256368 -0.30859,0 -0.66941,-0.08546 -0.35606,-0.08545 -0.68839,-0.270612 -0.32759,-0.180407 -0.54597,-0.470009 l 0.56496,-0.74062 q 0.25636,0.299097 0.5792,0.45102 0.32283,0.156669 0.69789,0.156669 0.56971,0 0.8878,-0.31334 0.31808,-0.308592 0.31808,-0.892542 v -3.82179 z m -3.47047,2.630151 v -0.0997 q 0,-0.783349 0.24687,-1.372046 0.25163,-0.593445 0.71214,-0.921028 0.46526,-0.33233 1.10618,-0.33233 0.50799,0 0.85456,0.185156 0.35132,0.185155 0.57921,0.526979 0.23263,0.341825 0.36081,0.811834 0.13294,0.465262 0.20415,1.025475 v 0.27061 q -0.0902,0.72163 -0.32284,1.291339 -0.22788,0.56496 -0.64092,0.892543 -0.40829,0.322833 -1.04446,0.322833 -0.63143,0 -1.09669,-0.337077 -0.46051,-0.341824 -0.71214,-0.930523 -0.24687,-0.588698 -0.24687,-1.334065 z m 1.25336,-0.0997 v 0.0997 q 0,0.441524 0.11868,0.807086 0.11868,0.365563 0.36556,0.579204 0.24688,0.21364 0.63143,0.21364 0.3893,0 0.63617,-0.161417 0.25163,-0.166166 0.37981,-0.451019 0.13294,-0.289601 0.17091,-0.650417 v -0.745367 q -0.0237,-0.284854 -0.10444,-0.52698 -0.076,-0.242126 -0.21364,-0.417787 -0.13768,-0.175659 -0.35132,-0.275359 -0.21364,-0.0997 -0.50799,-0.0997 -0.38455,0 -0.63617,0.218388 -0.24688,0.218388 -0.37031,0.588699 -0.11869,0.365562 -0.11869,0.821328 z m 5.73506,-1.481241 v 4.087652 h -1.25336 v -5.136866 h 1.18689 z m 1.56195,-1.082444 -0.019,1.167901 q -0.10444,-0.01899 -0.23738,-0.02848 -0.12819,-0.0095 -0.24212,-0.0095 -0.3893,0 -0.64567,0.137684 -0.25637,0.137684 -0.3893,0.394049 -0.12819,0.25162 -0.14243,0.607688 l -0.27061,-0.03323 q 0,-0.655164 0.17091,-1.172649 0.17566,-0.522232 0.51274,-0.821328 0.34182,-0.303845 0.84506,-0.303845 0.10444,0 0.22314,0.01899 0.12344,0.01424 0.19465,0.04274 z m 3.32329,4.078159 V 25.24678 q 0,-0.3893 -0.20414,-0.617185 -0.1994,-0.232629 -0.63143,-0.232629 -0.25162,0 -0.44152,0.08545 -0.18516,0.08545 -0.28485,0.242126 -0.0997,0.151924 -0.0997,0.351321 h -1.2581 q 0,-0.427281 0.26586,-0.788097 0.26586,-0.365563 0.75011,-0.588697 0.48426,-0.223137 1.13942,-0.223137 0.58395,0 1.03972,0.199399 0.46051,0.19465 0.72162,0.588697 0.26586,0.394048 0.26586,0.992242 v 2.24085 q 0,0.384554 0.0475,0.659913 0.0522,0.27061 0.15189,0.470009 v 0.08071 h -1.27709 q -0.0902,-0.194651 -0.13769,-0.493747 -0.0475,-0.303845 -0.0475,-0.598194 z m 0.17566,-2.036705 0.01,0.745368 h -0.79285 q -0.59344,0 -0.88304,0.232629 -0.28486,0.227883 -0.28486,0.612437 0,0.284854 0.19465,0.479504 0.1994,0.189903 0.54597,0.189903 0.33233,0 0.57921,-0.132937 0.24687,-0.137684 0.38455,-0.33233 0.13768,-0.19465 0.14718,-0.37031 l 0.36081,0.541223 q -0.0665,0.19465 -0.1994,0.413038 -0.13293,0.218388 -0.34182,0.408291 -0.20889,0.189902 -0.50325,0.313339 -0.29434,0.123444 -0.68364,0.123444 -0.4985,0 -0.89255,-0.199397 -0.39404,-0.199398 -0.62193,-0.54597 -0.22788,-0.346572 -0.22788,-0.788097 0,-0.807085 0.60294,-1.248609 0.60769,-0.441523 1.76135,-0.441523 z m 3.46573,-0.954261 v 4.082903 H 140.467 v -5.136866 h 1.18216 z m -0.18517,1.329315 h -0.38454 q 0,-0.716883 0.23264,-1.272348 0.23261,-0.560212 0.67889,-0.883047 0.45103,-0.322835 1.11568,-0.322835 0.69789,0 1.13467,0.422533 0.44152,0.417787 0.44152,1.381543 v 3.427742 h -1.25335 V 25.40819 q 0,-0.360815 -0.10443,-0.56496 -0.0997,-0.204145 -0.28959,-0.284854 -0.1899,-0.08545 -0.45577,-0.08545 -0.29434,0 -0.50799,0.118682 -0.2089,0.113935 -0.34657,0.318086 -0.1329,0.204145 -0.1994,0.470009 -0.0617,0.265864 -0.0617,0.574456 z m 3.12391,-0.232631 -0.51748,0.09495 q 0.005,-0.650416 0.22787,-1.177395 0.22789,-0.531728 0.66942,-0.845068 0.44626,-0.318087 1.09668,-0.318087 0.508,0 0.8783,0.19465 0.37506,0.189904 0.5792,0.612437 0.20415,0.422533 0.20415,1.125173 v 3.299561 h -1.26285 v -3.304306 q 0,-0.375057 -0.10443,-0.574455 -0.0997,-0.199399 -0.28961,-0.275359 -0.1899,-0.08071 -0.44626,-0.08071 -0.26111,0 -0.45577,0.09969 -0.1899,0.09495 -0.32284,0.265864 -0.12816,0.170913 -0.19464,0.398796 -0.0617,0.223136 -0.0617,0.484252 z m 9.57109,1.580939 q 0,-0.161417 -0.0854,-0.2896 -0.0854,-0.128191 -0.32283,-0.232631 -0.23264,-0.109189 -0.68365,-0.204146 -0.53173,-0.113935 -0.94477,-0.303845 -0.41303,-0.19465 -0.65041,-0.493746 -0.23264,-0.299097 -0.23264,-0.735873 0,-0.42728 0.24213,-0.778601 0.24213,-0.356068 0.69315,-0.569708 0.45576,-0.218388 1.08244,-0.218388 0.65516,0 1.12518,0.21364 0.47475,0.213642 0.72637,0.588699 0.25162,0.37031 0.25162,0.835571 h -1.25336 q 0,-0.303843 -0.21363,-0.522231 -0.2089,-0.218388 -0.64093,-0.218388 -0.26111,0 -0.44153,0.08545 -0.17566,0.08545 -0.26586,0.223136 -0.0902,0.137684 -0.0902,0.303844 0,0.166165 0.0902,0.284855 0.0949,0.118682 0.31334,0.21364 0.2184,0.0902 0.6077,0.17566 0.57445,0.113936 1.00173,0.303844 0.43202,0.185155 0.67415,0.493747 0.24213,0.308591 0.24213,0.788095 0,0.45102 -0.26112,0.807087 -0.26111,0.351319 -0.74061,0.550718 -0.47476,0.199397 -1.12043,0.199397 -0.70739,0 -1.19639,-0.251621 -0.489,-0.256368 -0.74062,-0.645668 -0.25162,-0.394049 -0.25162,-0.816582 h 1.20114 q 0.0138,0.299097 0.16141,0.479504 0.14715,0.180407 0.37031,0.261116 0.22788,0.07596 0.4795,0.07596 0.28486,0 0.47951,-0.07596 0.19466,-0.08071 0.29435,-0.21364 0.0997,-0.137684 0.0997,-0.31334 z m 4.28231,0.512738 q 0.26586,0 0.47476,-0.104442 0.20888,-0.104442 0.33232,-0.29435 0.12816,-0.189902 0.13766,-0.441523 h 1.18213 q -0.009,0.522232 -0.29434,0.93527 -0.28486,0.413038 -0.75962,0.655164 -0.47001,0.237378 -1.05396,0.237378 -0.78808,0 -1.31032,-0.346571 -0.52223,-0.346573 -0.78336,-0.935271 -0.25636,-0.588697 -0.25636,-1.305581 v -0.15192 q 0,-0.716881 0.25636,-1.300832 0.26113,-0.588699 0.78336,-0.935271 0.52224,-0.35132 1.30558,-0.35132 0.62193,0 1.09195,0.242126 0.47475,0.242126 0.74061,0.683649 0.27061,0.441525 0.2801,1.039718 h -1.18213 q -0.009,-0.275359 -0.12342,-0.493747 -0.11392,-0.218388 -0.32283,-0.351321 -0.20888,-0.132937 -0.50799,-0.132937 -0.42727,0 -0.65991,0.232631 -0.23263,0.23263 -0.31808,0.598194 -0.0854,0.365562 -0.0854,0.769104 v 0.151924 q 0,0.413038 0.0854,0.778601 0.0854,0.365562 0.31808,0.593447 0.23264,0.227883 0.66941,0.227884 z m 2.73935,-1.623668 v -0.0997 q 0,-0.750116 0.28484,-1.338813 0.28486,-0.593447 0.82133,-0.935271 0.53648,-0.341825 1.29608,-0.341825 0.76912,0 1.3056,0.341825 0.54121,0.341824 0.82607,0.935271 0.28485,0.588697 0.28485,1.338813 v 0.0997 q 0,0.750116 -0.28485,1.343561 -0.28486,0.588699 -0.82132,0.930523 -0.53649,0.337077 -1.30084,0.337077 -0.76436,0 -1.30559,-0.337077 -0.53647,-0.341824 -0.82133,-0.930523 -0.28484,-0.593445 -0.28484,-1.343561 z m 1.25335,-0.0997 v 0.0997 q 0,0.446271 0.11866,0.816581 0.11867,0.365563 0.3703,0.588699 0.25639,0.218388 0.66942,0.218388 0.40829,0 0.65991,-0.218388 0.25637,-0.223136 0.37505,-0.588699 0.11867,-0.37031 0.11867,-0.816581 v -0.0997 q 0,-0.436776 -0.12342,-0.807086 -0.11866,-0.370309 -0.3703,-0.593446 -0.25162,-0.227883 -0.66942,-0.227883 -0.40829,0 -0.65991,0.227883 -0.25161,0.223137 -0.3703,0.593446 -0.11866,0.37031 -0.11866,0.807086 z m 5.72557,-1.471746 v 4.087652 h -1.25337 v -5.136866 h 1.1869 z m 1.56194,-1.082444 -0.019,1.167901 q -0.10442,-0.01899 -0.23737,-0.02848 -0.12816,-0.0095 -0.24213,-0.0095 -0.3893,0 -0.64567,0.137684 -0.25637,0.137684 -0.3893,0.394049 -0.12816,0.25162 -0.1424,0.607688 l -0.27061,-0.03323 q 0,-0.655164 0.17091,-1.172649 0.17566,-0.522232 0.51275,-0.821328 0.34182,-0.303845 0.84506,-0.303845 0.10443,0 0.22314,0.01899 0.12341,0.01424 0.19464,0.04274 z m 2.90077,5.26505 q -0.77861,0 -1.34357,-0.327582 -0.56021,-0.332329 -0.86405,-0.89729 -0.30385,-0.564959 -0.30385,-1.262853 v -0.189902 q 0,-0.792844 0.29434,-1.386289 0.29911,-0.598193 0.83559,-0.930523 0.53646,-0.33233 1.23911,-0.33233 0.73112,0 1.22487,0.318087 0.49849,0.318088 0.75011,0.883047 0.25163,0.564961 0.25163,1.315077 v 0.52698 h -4.02594 v -0.86405 h 2.79156 v -0.09495 q -0.009,-0.299097 -0.11392,-0.54597 -0.10442,-0.251621 -0.32283,-0.398795 -0.21839,-0.151924 -0.56496,-0.151924 -0.37032,0 -0.61719,0.208893 -0.24213,0.208893 -0.36081,0.583951 -0.11867,0.375057 -0.11867,0.868804 v 0.189902 q 0,0.427281 0.15667,0.769106 0.15668,0.337077 0.45578,0.536476 0.2991,0.19465 0.71214,0.19465 0.39405,0 0.71213,-0.151924 0.32284,-0.156669 0.5602,-0.460514 l 0.63143,0.655164 q -0.24212,0.356068 -0.73587,0.650416 -0.489,0.294349 -1.24386,0.294349 z m 6.66558,-4.182606 v 4.087652 h -1.25335 v -5.136866 h 1.18688 z m 1.56194,-1.082444 -0.019,1.167901 q -0.10442,-0.01899 -0.23738,-0.02848 -0.12816,-0.0095 -0.24212,-0.0095 -0.3893,0 -0.64567,0.137684 -0.25637,0.137684 -0.38929,0.394049 -0.12816,0.25162 -0.1424,0.607688 l -0.27062,-0.03323 q 0,-0.655164 0.17093,-1.172649 0.17565,-0.522232 0.51273,-0.821328 0.34182,-0.303845 0.84506,-0.303845 0.10442,0 0.22314,0.01899 0.12341,0.01424 0.19464,0.04274 z m 3.32331,4.078159 V 25.24678 q 0,-0.3893 -0.20415,-0.617185 -0.19939,-0.232629 -0.63143,-0.232629 -0.25162,0 -0.44152,0.08545 -0.18515,0.08545 -0.28486,0.242126 -0.0997,0.151924 -0.0997,0.351321 h -1.2581 q 0,-0.427281 0.26586,-0.788097 0.26586,-0.365563 0.75012,-0.588697 0.48425,-0.223137 1.13941,-0.223137 0.58395,0 1.03972,0.199399 0.46052,0.19465 0.72163,0.588697 0.26586,0.394048 0.26586,0.992242 v 2.24085 q 0,0.384554 0.0475,0.659913 0.0522,0.27061 0.15189,0.470009 v 0.08071 h -1.2771 q -0.0902,-0.194651 -0.13765,-0.493747 -0.0475,-0.303845 -0.0475,-0.598194 z m 0.17566,-2.036705 0.009,0.745368 h -0.79285 q -0.59344,0 -0.88305,0.232629 -0.28485,0.227883 -0.28485,0.612437 0,0.284854 0.19465,0.479504 0.1994,0.189903 0.54597,0.189903 0.33233,0 0.5792,-0.132937 0.24688,-0.137684 0.38456,-0.33233 0.13765,-0.19465 0.14715,-0.37031 l 0.36081,0.541223 q -0.0665,0.19465 -0.1994,0.413038 -0.1329,0.218388 -0.34183,0.408291 -0.20889,0.189902 -0.50324,0.313339 -0.29436,0.123444 -0.68364,0.123444 -0.4985,0 -0.89255,-0.199397 -0.39405,-0.199398 -0.62193,-0.54597 -0.22789,-0.346572 -0.22789,-0.788097 0,-0.807085 0.60295,-1.248609 0.60768,-0.441523 1.76134,-0.441523 z m 4.64786,-2.008221 v 0.902037 h -2.94348 v -0.902037 z m -2.15538,-1.262853 h 1.25809 v 4.918479 q 0,0.227883 0.0617,0.351319 0.0617,0.123444 0.18515,0.166166 0.12341,0.04274 0.29435,0.04274 0.12342,0 0.22789,-0.01424 0.10443,-0.01424 0.17566,-0.02848 l 0.005,0.940018 q -0.15667,0.05223 -0.35608,0.08545 -0.19464,0.03323 -0.44151,0.03323 -0.42253,0 -0.74062,-0.142431 -0.31809,-0.147177 -0.49375,-0.470009 -0.17565,-0.327583 -0.17565,-0.864057 z m 4.32028,1.262853 v 5.136863 h -1.25812 v -5.136866 z m -1.34357,-1.343564 q 0,-0.280107 0.1899,-0.465261 0.19465,-0.185156 0.52224,-0.185156 0.32758,0 0.51747,0.185156 0.19466,0.185154 0.19466,0.465261 0,0.275358 -0.19466,0.460514 -0.18989,0.185155 -0.51747,0.185155 -0.32759,0 -0.52224,-0.185155 -0.1899,-0.185156 -0.1899,-0.460514 z m 2.31682,3.964217 v -0.0997 q 0,-0.750116 0.28484,-1.338813 0.28486,-0.593447 0.82134,-0.935271 0.53647,-0.341825 1.29609,-0.341825 0.7691,0 1.30558,0.341825 0.54121,0.341824 0.82607,0.935271 0.28485,0.588697 0.28485,1.338813 v 0.0997 q 0,0.750116 -0.28485,1.343561 -0.28486,0.588699 -0.82132,0.930523 -0.53649,0.337077 -1.30084,0.337077 -0.76436,0 -1.30558,-0.337077 -0.53648,-0.341824 -0.82134,-0.930523 -0.28484,-0.593445 -0.28484,-1.343561 z m 1.25335,-0.0997 v 0.0997 q 0,0.446271 0.11866,0.816581 0.11867,0.365563 0.3703,0.588699 0.25639,0.218388 0.66942,0.218388 0.40829,0 0.65991,-0.218388 0.25637,-0.223136 0.37505,-0.588699 0.11867,-0.37031 0.11867,-0.816581 v -0.0997 q 0,-0.436776 -0.12342,-0.807086 -0.11866,-0.370309 -0.3703,-0.593446 -0.25162,-0.227883 -0.6694,-0.227883 -0.40831,0 -0.65993,0.227883 -0.25161,0.223137 -0.3703,0.593446 -0.11866,0.37031 -0.11866,0.807086 z m 10.22625,-2.520957 h 1.13942 v 4.980196 q 0,0.697893 -0.30384,1.182144 -0.2991,0.489 -0.84033,0.740621 -0.54121,0.256368 -1.25809,0.256368 -0.3086,0 -0.66941,-0.08546 -0.35607,-0.08545 -0.6884,-0.270612 -0.32758,-0.180407 -0.54597,-0.470009 l 0.56496,-0.740619 q 0.25636,0.299096 0.5792,0.451019 0.32283,0.156669 0.69789,0.156669 0.56971,0 0.8878,-0.31334 0.31809,-0.308592 0.31809,-0.892542 v -3.82179 z m -3.47046,2.630151 v -0.0997 q 0,-0.783349 0.24688,-1.372046 0.25161,-0.593445 0.71212,-0.921028 0.46526,-0.33233 1.10619,-0.33233 0.50798,0 0.85457,0.185156 0.35131,0.185155 0.5792,0.526979 0.23263,0.341825 0.3608,0.811834 0.13291,0.465262 0.20416,1.025475 v 0.270611 q -0.0902,0.721629 -0.32284,1.291338 -0.22788,0.56496 -0.64092,0.892543 -0.40829,0.322833 -1.04447,0.322833 -0.63143,0 -1.09669,-0.337076 -0.46051,-0.341825 -0.71212,-0.930524 -0.24688,-0.588698 -0.24688,-1.334065 z m 1.25335,-0.0997 v 0.0997 q 0,0.441524 0.11867,0.807087 0.11867,0.365562 0.36555,0.579203 0.24688,0.21364 0.63143,0.21364 0.38931,0 0.63618,-0.161417 0.25162,-0.166166 0.37979,-0.451019 0.13291,-0.289601 0.17092,-0.650416 v -0.745371 q -0.0237,-0.284854 -0.10443,-0.52698 -0.076,-0.242126 -0.21363,-0.417787 -0.13766,-0.175659 -0.35133,-0.275359 -0.21363,-0.0997 -0.50799,-0.0997 -0.38455,0 -0.63617,0.218388 -0.24688,0.218388 -0.37031,0.588699 -0.11866,0.365562 -0.11866,0.821328 z m 7.53914,1.38629 v -3.916742 h 1.26286 v 5.13686 h -1.1869 z m 0.16141,-1.063455 0.38931,-0.0095 q 0,0.688397 -0.2089,1.22962 -0.20414,0.536474 -0.63618,0.849813 -0.42727,0.308591 -1.09193,0.308591 -0.75961,0 -1.23436,-0.446271 -0.47002,-0.446271 -0.47002,-1.466998 v -3.318547 h 1.25335 v 3.328044 q 0,0.337076 0.10443,0.536474 0.10443,0.199397 0.28485,0.284854 0.1804,0.08071 0.39879,0.08071 0.45578,0 0.71689,-0.180407 0.26586,-0.185156 0.37981,-0.493747 0.11392,-0.31334 0.11392,-0.70264 z m 3.53695,-2.853287 v 5.13686 h -1.25812 V 23.57087 Z m -1.34357,-1.343567 q 0,-0.280107 0.1899,-0.465261 0.19466,-0.185156 0.52224,-0.185156 0.32758,0 0.51748,0.185156 0.19465,0.185154 0.19465,0.465261 0,0.275358 -0.19465,0.460514 -0.1899,0.185155 -0.51748,0.185155 -0.32758,0 -0.52224,-0.185155 -0.1899,-0.185156 -0.1899,-0.460514 z m 5.62113,5.388487 v -6.200321 h 1.26284 v 7.292261 h -1.13941 z m -3.29957,-1.414775 v -0.0997 q 0,-0.783349 0.23738,-1.372046 0.24213,-0.593445 0.69314,-0.921028 0.45102,-0.33233 1.08245,-0.33233 0.61718,0 1.02547,0.327583 0.41304,0.322833 0.65041,0.897289 0.23738,0.574456 0.32284,1.324572 v 0.27061 q -0.0854,0.72163 -0.32284,1.291339 -0.23737,0.56496 -0.65041,0.892543 -0.41304,0.322833 -1.03496,0.322833 -0.62668,0 -1.07771,-0.337077 -0.44626,-0.341824 -0.68839,-0.930523 -0.23738,-0.588698 -0.23738,-1.334065 z m 1.2581,-0.0997 v 0.0997 q 0,0.441524 0.10443,0.807086 0.10442,0.365563 0.33707,0.579204 0.23738,0.21364 0.62192,0.21364 0.37032,0 0.6077,-0.161417 0.24213,-0.166166 0.37506,-0.451019 0.13291,-0.289601 0.17091,-0.650417 v -0.745367 q -0.019,-0.284854 -0.0997,-0.52698 -0.0759,-0.242126 -0.21837,-0.417787 -0.13766,-0.175659 -0.34183,-0.275359 -0.20415,-0.0997 -0.48425,-0.0997 -0.38455,0 -0.62193,0.218388 -0.23264,0.218388 -0.34183,0.588699 -0.10917,0.365562 -0.10917,0.821328 z m 6.74154,2.701365 q -0.77859,0 -1.34355,-0.327582 -0.56022,-0.332329 -0.86406,-0.89729 -0.30385,-0.564959 -0.30385,-1.262853 v -0.189902 q 0,-0.792844 0.29435,-1.386289 0.2991,-0.598193 0.83557,-0.930523 0.53648,-0.33233 1.23913,-0.33233 0.73112,0 1.22487,0.318087 0.49849,0.318088 0.75011,0.883047 0.25162,0.564961 0.25162,1.315077 v 0.52698 h -4.02594 V 25.65507 h 2.79157 v -0.09495 q -0.009,-0.299097 -0.11392,-0.54597 -0.10442,-0.251621 -0.32283,-0.398795 -0.21838,-0.151924 -0.56495,-0.151924 -0.37031,0 -0.61719,0.208893 -0.24212,0.208893 -0.36082,0.583951 -0.11867,0.375057 -0.11867,0.868804 v 0.189902 q 0,0.427281 0.15667,0.769106 0.15668,0.337077 0.45578,0.536476 0.29908,0.19465 0.71212,0.19465 0.39405,0 0.71214,-0.151924 0.32283,-0.156669 0.56021,-0.460514 l 0.63143,0.655164 q -0.24213,0.356068 -0.73587,0.650416 -0.489,0.294349 -1.24387,0.294349 z"
       id="text52"
       aria-label="ngram score ratio guide" /><path
       id="path10"
       style="font-variation-settings:normal;opacity:1;vector-effect:none;fill:url(#linearGradient11);fill-opacity:1;stroke:none;stroke-width:0.265;stroke-linecap:butt;stroke-linejoin:miter;stroke-miterlimit:4;stroke-dasharray:none;stroke-dashoffset:0;stroke-opacity:1;-inkscape-stroke:none;stop-color:#000000;stop-opacity:1"
       d="m 300.33025,89.366552 h 13.98813 c 0.34724,0 0.62679,1.347599 0.62679,3.021523 v 2.930881 c 0,1.673923 -0.27955,3.021526 -0.62679,3.021526 h -13.98813 c -0.34726,0 -0.62681,-1.347603 -0.62681,-3.021526 v -2.930881 c 0,-1.673924 0.27955,-3.021523 0.62681,-3.021523 z" /></g></svg>
